<svg width="104" height="82" viewBox="0 0 104 82" fill="none" xmlns="http://www.w3.org/2000/svg">
<path d="M74 16.5C74 20.2274 71.851 23.8039 67.9677 26.5304C64.0904 29.2528 58.628 31 52.5 31C46.372 31 40.9096 29.2528 37.0323 26.5304C33.149 23.8039 31 20.2274 31 16.5C31 12.7726 33.149 9.19609 37.0323 6.46956C40.9096 3.74719 46.372 2 52.5 2C58.628 2 64.0904 3.74719 67.9677 6.46956C71.851 9.19609 74 12.7726 74 16.5Z" stroke="#E6E5E5" stroke-width="4"/>
<rect y="10" width="104" height="72" rx="6" fill="#443D7C"/>
<line x1="15.3865" y1="52.5506" x2="60.3865" y2="64.5506" stroke="#50819B" stroke-width="3"/>
<line x1="37.7283" y1="34.5248" x2="75.7283" y2="27.5248" stroke="#50819B" stroke-width="3"/>
<line x1="62.5732" y1="65.5372" x2="74.5732" y2="28.5372" stroke="#50819B" stroke-width="3"/>
<line x1="18.0035" y1="52.8789" x2="36.0035" y2="36.8789" stroke="#50819B" stroke-width="3"/>
<circle cx="37" cy="36" r="4" fill="#E6E5E5"/>
<circle cx="19" cy="54" r="4" fill="#E6E5E5"/>
<circle cx="64" cy="66" r="4" fill="#E6E5E5"/>
<circle cx="76" cy="29" r="4" fill="#E6E5E5"/>
</svg>
