<?xml version="1.0" standalone="no"?>
<!DOCTYPE svg PUBLIC "-//W3C//DTD SVG 20010904//EN"
 "http://www.w3.org/TR/2001/REC-SVG-20010904/DTD/svg10.dtd">
<svg version="1.0" xmlns="http://www.w3.org/2000/svg"
 width="832.000000pt" height="832.000000pt" viewBox="0 0 832.000000 832.000000"
 preserveAspectRatio="xMidYMid meet">
<metadata>
Created by potrace 1.11, written by Peter Selinger 2001-2013
</metadata>
<g transform="translate(0.000000,832.000000) scale(0.100000,-0.100000)"
fill="#000000" stroke="none">
<path d="M4019 7436 c-2 -2 -40 -7 -85 -10 -44 -4 -90 -8 -101 -10 -11 -3 -38
-7 -59 -11 -72 -11 -95 -15 -157 -31 -34 -8 -69 -16 -77 -18 -97 -24 -253 -77
-258 -89 -2 -4 -7 -5 -11 -2 -11 6 -253 -114 -320 -159 -29 -20 -55 -36 -58
-36 -10 0 -139 -105 -208 -170 -77 -73 -205 -228 -205 -249 0 -10 -136 -20
-150 -11 -4 3 -45 3 -90 0 -45 -3 -83 -3 -85 0 -2 3 -31 3 -65 0 -34 -3 -64
-2 -66 2 -3 5 -10 6 -16 2 -9 -6 -108 -7 -158 -1 -14 2 -40 0 -57 -4 -18 -4
-49 -3 -68 1 -19 4 -37 4 -40 0 -3 -4 -21 -4 -40 0 -19 4 -37 4 -40 0 -2 -4
-23 -4 -45 0 -22 4 -43 4 -45 0 -3 -4 -21 -4 -40 0 -19 4 -37 4 -40 0 -3 -4
-20 -4 -39 0 -19 4 -40 4 -46 0 -7 -4 -26 -4 -41 0 -16 5 -29 5 -29 1 0 -5
-18 -5 -40 -1 -22 4 -43 4 -45 0 -3 -4 -21 -4 -40 0 -19 4 -37 4 -40 0 -3 -4
-20 -4 -39 0 -19 4 -40 4 -46 0 -7 -4 -26 -4 -41 0 -16 5 -29 5 -29 0 0 -4
-16 -4 -35 0 -19 4 -37 4 -40 0 -3 -4 -20 -5 -37 -1 -18 4 -42 6 -53 5 -43 -5
-93 -6 -161 -4 -39 2 -77 0 -83 -4 -6 -4 -11 -2 -11 4 0 6 -3 9 -8 6 -4 -2
-34 -6 -66 -7 -224 -10 -410 -166 -456 -382 -13 -59 -14 -4966 -1 -4999 5 -13
14 -41 21 -63 18 -56 71 -137 122 -185 53 -51 165 -107 238 -120 36 -7 1337
-9 3805 -8 l3750 3 55 22 c56 23 145 76 171 103 48 49 101 134 123 200 l25 75
0 2470 c-1 2740 5 2526 -67 2649 -32 54 -116 146 -134 146 -4 0 -13 6 -20 13
-31 32 -150 68 -236 73 -47 3 -89 7 -93 10 -4 2 -10 0 -13 -5 -3 -5 -21 -5
-41 -1 -19 4 -35 4 -35 0 0 -4 -16 -4 -35 0 -19 4 -37 4 -40 0 -3 -4 -20 -5
-37 -1 -18 4 -44 6 -58 4 -14 -2 -46 -3 -72 -3 -27 0 -56 0 -65 0 -25 0 -64 1
-88 4 -11 1 -35 -1 -52 -5 -18 -4 -49 -3 -68 1 -19 4 -37 4 -40 0 -3 -4 -21
-4 -40 0 -19 4 -37 4 -40 0 -3 -4 -21 -4 -40 0 -19 4 -37 4 -40 0 -3 -4 -20
-5 -37 -1 -18 4 -44 6 -58 4 -14 -2 -46 -3 -72 -3 -27 0 -56 0 -65 0 -25 0
-64 1 -88 4 -11 1 -35 -1 -52 -5 -18 -4 -49 -3 -68 1 -19 4 -37 4 -40 0 -3 -4
-20 -5 -37 -1 -18 4 -44 6 -58 4 -14 -2 -46 -3 -72 -3 -27 0 -56 0 -65 0 -25
0 -64 1 -88 4 -11 1 -35 -1 -53 -5 -17 -4 -34 -3 -37 1 -3 4 -21 4 -41 0 -20
-5 -42 -7 -48 -5 -6 2 -23 6 -37 9 -16 3 -38 23 -55 48 -41 61 -52 73 -124
151 -36 38 -66 73 -68 78 -2 5 -8 9 -12 9 -5 0 -20 10 -33 23 -101 95 -388
268 -512 307 -22 7 -44 16 -50 20 -11 8 -139 50 -225 74 -74 20 -255 57 -305
61 -22 2 -60 7 -85 10 -48 7 -455 16 -461 11z m341 -322 c31 -1 74 -4 96 -8
21 -3 59 -8 83 -11 129 -15 414 -90 450 -119 8 -6 15 -10 15 -8 1 5 42 -11
121 -49 132 -61 274 -158 363 -245 l33 -32 -82 -4 c-44 -2 -82 -1 -84 2 -2 3
-31 3 -65 0 -34 -3 -64 -2 -66 2 -3 5 -10 6 -16 2 -9 -6 -108 -7 -158 -1 -14
2 -40 0 -57 -4 -18 -4 -49 -3 -68 1 -19 4 -37 4 -40 0 -3 -4 -21 -4 -40 0 -19
4 -37 4 -40 0 -2 -4 -23 -4 -45 0 -22 4 -43 4 -45 0 -3 -4 -21 -4 -40 0 -19 4
-37 4 -40 0 -3 -4 -20 -4 -39 0 -19 4 -40 4 -46 0 -7 -4 -24 -4 -39 0 -14 4
-35 5 -46 3 -11 -2 -41 -3 -67 -3 -27 0 -56 0 -65 0 -25 0 -64 1 -88 4 -11 1
-35 -1 -53 -5 -17 -4 -34 -3 -37 1 -3 4 -21 4 -40 0 -19 -4 -50 -4 -69 0 -19
4 -40 4 -46 0 -7 -4 -24 -5 -39 -1 -25 7 -85 5 -107 -3 -6 -3 -28 -1 -48 4
-20 4 -38 4 -41 0 -3 -4 -20 -5 -37 -1 -18 4 -44 6 -58 4 -14 -2 -46 -3 -72
-3 -27 0 -56 0 -65 0 -25 0 -64 1 -88 4 -11 1 -35 -1 -52 -5 -18 -4 -49 -3
-68 1 -20 4 -38 4 -41 -1 -3 -5 -10 -7 -15 -3 -6 3 -38 5 -72 4 -34 -1 -66 -1
-72 -1 -17 1 -139 0 -165 0 -14 -1 -38 0 -53 2 l-29 4 45 40 c66 60 84 73 161
125 79 54 229 133 285 151 20 6 41 15 46 19 12 10 239 79 280 86 60 9 73 12
92 18 10 3 45 8 78 12 33 3 64 8 68 11 4 3 83 6 174 8 91 2 168 6 171 9 2 3
10 3 15 -1 6 -4 36 -7 67 -9z"/>
</g>
</svg>
